<svg width="512" height="512" viewBox="0 0 512 512" fill="none" xmlns="http://www.w3.org/2000/svg">
<g clip-path="url(#clip0_1308_46)">
<path d="M332.41 179.675C312.862 160.106 285.845 148 256 148C196.353 148 148 196.353 148 256C148 315.647 196.353 364 256 364C315.647 364 364 315.647 364 256H284M256 24V104M256 408V488M24 256H104M91.9512 91.9512L148.52 148.52M363.48 363.48L420.049 420.049M91.9512 420.049L148.52 363.48M363.48 148.52L420.049 91.9512" stroke="url(#paint0_linear_1308_46)" stroke-width="24" stroke-linecap="round" stroke-linejoin="round"/>
</g>
<defs>
<linearGradient id="paint0_linear_1308_46" x1="85" y1="84" x2="429" y2="428" gradientUnits="userSpaceOnUse">
<stop stop-color="#EAB308"/>
<stop offset="0.285" stop-color="#FACC15"/>
<stop offset="1" stop-color="#CA8A04"/>
</linearGradient>
<clipPath id="clip0_1308_46">
<rect width="512" height="512" fill="white"/>
</clipPath>
</defs>
</svg>
