<svg width="60" height="60" viewBox="0 0 60 60" fill="none" xmlns="http://www.w3.org/2000/svg">
<path d="M28.7918 17.022L28.1334 16.2694L26.2878 17.884L28.7361 18.0205L28.7918 17.022ZM41.8584 29.0012L40.8685 29.1427L40.9933 30.0164L41.8757 30.0011L41.8584 29.0012ZM49.945 37.9429L48.9518 37.8263L48.8027 39.0968L50.0715 38.9349L49.945 37.9429ZM48.9203 24.2868L47.9307 24.4303L48.0571 25.3016L48.9374 25.2866L48.9203 24.2868ZM28.7361 18.0205C34.9505 18.3669 40.0019 23.0809 40.8685 29.1427L42.8483 28.8597C41.8481 21.8625 36.0218 16.4236 28.8475 16.0236L28.7361 18.0205ZM41.8757 30.0011C41.9171 30.0004 41.9585 30 42 30V28C41.9469 28 41.8939 28.0005 41.8411 28.0014L41.8757 30.0011ZM42 30C45.866 30 49 33.134 49 37H51C51 32.0294 46.9706 28 42 28V30ZM49 37C49 37.28 48.9836 37.5557 48.9518 37.8263L50.9382 38.0596C50.979 37.7117 51 37.3581 51 37H49ZM55 31.1429C55 34.108 52.7528 36.5767 49.8185 36.951L50.0715 38.9349C53.9694 38.4377 57 35.1496 57 31.1429H55ZM49.0435 25.2857C52.3468 25.2857 55 27.9216 55 31.1429H57C57 26.79 53.4241 23.2857 49.0435 23.2857V25.2857ZM48.9374 25.2866C48.9727 25.286 49.0081 25.2857 49.0435 25.2857V23.2857C48.9966 23.2857 48.9499 23.2861 48.9033 23.2869L48.9374 25.2866ZM36.8696 15C42.5098 15 47.1591 19.1098 47.9307 24.4303L49.91 24.1432C48.9947 17.832 43.4961 13 36.8696 13V15ZM29.4503 17.7746C31.4229 16.0489 34.0197 15 36.8696 15V13C33.5203 13 30.4591 14.2347 28.1334 16.2694L29.4503 17.7746Z" fill="white"/>
<path d="M14 45C8.47715 45 4 40.5228 4 35C4 29.4772 8.47715 25 14 25C14.4431 25 14.8795 25.0288 15.3074 25.0847C17.5368 20.3092 22.3819 17 28 17C35.0534 17 40.8885 22.216 41.8584 29.0012C41.9055 29.0004 41.9527 29 42 29C46.4183 29 50 32.5817 50 37C50 41.4183 46.4183 45 42 45H14Z" stroke="white" stroke-width="2"/>
</svg>
