<svg width="60" height="60" viewBox="0 0 60 60" fill="none" xmlns="http://www.w3.org/2000/svg">
<path d="M43 40.0048H46.3043C51.1068 40.0048 55 36.1116 55 31.3091C55 26.5067 51.1068 22.6135 46.3043 22.6135C46.2529 22.6135 46.2016 22.6139 46.1504 22.6148C45.0962 15.2396 38.7537 9.57 31.087 9.57C24.9804 9.57 19.7139 13.1669 17.2906 18.3577C16.8255 18.297 16.3512 18.2657 15.8696 18.2657C9.86647 18.2657 5 23.1321 5 29.1352C5 35.1383 9.86647 40.0048 15.8696 40.0048H16.9348" stroke="white" stroke-width="2" stroke-linecap="round"/>
<path d="M30 48V52" stroke="white" stroke-width="2" stroke-linecap="round"/>
<path d="M38 45V49" stroke="white" stroke-width="2" stroke-linecap="round"/>
<path d="M22 45V49" stroke="white" stroke-width="2" stroke-linecap="round"/>
<path d="M38 33V40" stroke="white" stroke-width="2" stroke-linecap="round"/>
<path d="M30 36V43" stroke="white" stroke-width="2" stroke-linecap="round"/>
<path d="M22 33V40" stroke="white" stroke-width="2" stroke-linecap="round"/>
</svg>
