<svg width="60" height="60" viewBox="0 0 60 60" fill="none" xmlns="http://www.w3.org/2000/svg">
  <linearGradient id="11d-sun" x1="5" y1="5" x2="40" y2="24" gradientUnits="userSpaceOnUse">
    <stop offset="0" stop-color="#fbbf24" />
    <stop offset="1" stop-color="#f97316" />
  </linearGradient>
  <linearGradient id="11d-cloud" x1="20" y1="20" x2="40" y2="55" gradientUnits="userSpaceOnUse">
    <stop offset="0" stop-color="#f0f9ff" />
    <stop offset="1" stop-color="#bae6fd" />
  </linearGradient>
  <path stroke="url(#11d-sun)" stroke-width="2" stroke-linecap="round" d="M34.435 11.565L30.1924 15.8076"/>
  <path stroke="url(#11d-sun)" stroke-width="2" stroke-linecap="round" d="M21 6L21 12"/>
  <path stroke="url(#11d-sun)" stroke-width="2" stroke-linecap="round" d="M7.56497 11.565L11.8076 15.8076"/>
  <path stroke="url(#11d-sun)" stroke-width="2" stroke-linecap="round" d="M2 25L8 25"/>
  <path stroke="url(#11d-sun)" stroke-width="2" d="M29.3638 21.6697C28.0398 18.3477 24.7941 16 21 16C16.0294 16 12 20.0294 12 25C12 27.4539 12.9821 29.6784 14.5746 31.3019"/>
  <path stroke="url(#11d-cloud)" stroke-width="2" stroke-linecap="round" d="M48 48H50C54.4183 48 58 44.4183 58 40C58 35.5817 54.4183 32 50 32C49.9527 32 49.9055 32.0004 49.8584 32.0012C48.8885 25.216 43.0534 20 36 20C30.3819 20 25.5368 23.3092 23.3074 28.0847C22.8795 28.0288 22.4431 28 22 28C16.4772 28 12 32.4772 12 38C12 43.5228 16.4772 48 22 48H24"/>
  <path stroke="#fbbf24" stroke-width="2" stroke-linecap="round" d="M34 38L38 47H34L38 55"/>
  <path stroke="white" stroke-width="1.5" stroke-linecap="round" d="M29 51L30.5 54M25.8889 40L27.6667 44"/>
  <path stroke="white" stroke-width="1.5" stroke-linecap="round" d="M43.6111 51L45.1111 54M42.5 40L44.2778 44"/>
</svg>
