<svg width="60" height="60" viewBox="0 0 60 60" fill="none" xmlns="http://www.w3.org/2000/svg">
<path d="M34.435 11.565L30.1924 15.8076" stroke="white" stroke-width="2" stroke-linecap="round"/>
<path d="M21 6L21 12" stroke="white" stroke-width="2" stroke-linecap="round"/>
<path d="M7.56497 11.565L11.8076 15.8076" stroke="white" stroke-width="2" stroke-linecap="round"/>
<path d="M2 25L8 25" stroke="white" stroke-width="2" stroke-linecap="round"/>
<path d="M29.3638 21.6697C28.0398 18.3477 24.7941 16 21 16C16.0294 16 12 20.0294 12 25C12 27.4539 12.9821 29.6784 14.5746 31.3019" stroke="white" stroke-width="2"/>
<path d="M48 48H50C54.4183 48 58 44.4183 58 40C58 35.5817 54.4183 32 50 32C49.9527 32 49.9055 32.0004 49.8584 32.0012C48.8885 25.216 43.0534 20 36 20C30.3819 20 25.5368 23.3092 23.3074 28.0847C22.8795 28.0288 22.4431 28 22 28C16.4772 28 12 32.4772 12 38C12 43.5228 16.4772 48 22 48H24" stroke="white" stroke-width="2" stroke-linecap="round"/>
<path d="M29 38V45" stroke="white" stroke-width="1.5" stroke-linecap="round"/>
<path d="M31.0311 51V58" stroke="white" stroke-width="1.5" stroke-linecap="round"/>
<path d="M40.0311 44V51" stroke="white" stroke-width="1.5" stroke-linecap="round"/>
<path d="M32.0311 39.75L25.9689 43.25" stroke="white" stroke-width="1.5" stroke-linecap="round"/>
<path d="M34.0622 52.75L28 56.25" stroke="white" stroke-width="1.5" stroke-linecap="round"/>
<path d="M43.0622 45.75L37 49.25" stroke="white" stroke-width="1.5" stroke-linecap="round"/>
<path d="M32.0311 43.25L25.9689 39.75" stroke="white" stroke-width="1.5" stroke-linecap="round"/>
<path d="M34.0622 56.25L28 52.75" stroke="white" stroke-width="1.5" stroke-linecap="round"/>
<path d="M43.0622 49.25L37 45.75" stroke="white" stroke-width="1.5" stroke-linecap="round"/>
</svg>
