<svg width="60" height="60" viewBox="0 0 60 60" fill="none" xmlns="http://www.w3.org/2000/svg">
<path d="M17.9338 12.5153C17.9338 17.1647 14.1647 20.9338 9.51529 20.9338C7.85384 20.9338 6.30481 20.4526 5 19.6218C5.24251 23.9157 7.94591 27.5517 11.7223 29.1418C13.5458 27.2075 16.1319 26 19 26C19.4431 26 19.8795 26.0288 20.3074 26.0847C21.6838 23.1363 24.0573 20.7468 26.9943 19.35C26.9981 19.2308 27 19.1112 27 18.9911C27 13.1227 22.4084 8.32681 16.6218 8C17.4526 9.30481 17.9338 10.8538 17.9338 12.5153Z" stroke="white" stroke-width="2"/>
<path d="M9.20004 34C10.1266 29.4355 14.1621 26 19 26C19.4431 26 19.8795 26.0288 20.3074 26.0847C22.5368 21.3092 27.3819 18 33 18C40.0534 18 45.8885 23.216 46.8584 30.0012C46.9055 30.0004 46.9527 30 47 30C49.9611 30 52.5465 31.6088 53.9297 34" stroke="white" stroke-width="2" stroke-linecap="round"/>
<path d="M7 40H55M10 46H51M19 52H45" stroke="white" stroke-width="1.5" stroke-linecap="round"/>
</svg>
