<?xml version="1.0" encoding="UTF-8"?><svg id="Source" xmlns="http://www.w3.org/2000/svg" viewBox="0 0 128 128"><defs><style>.cls-1{fill:none;stroke:#22d3ee;stroke-linecap:round;stroke-linejoin:round;stroke-width:4px;}</style></defs><g id="_Radial_Repeat_"><line class="cls-1" x1="64" y1="112" x2="64" y2="76"/><polyline class="cls-1" points="50 102 64 91 78 102"/></g><g id="_Radial_Repeat_-2"><line class="cls-1" x1="22.43" y1="88" x2="53.61" y2="70"/><polyline class="cls-1" points="24.09 70.87 40.62 77.5 38.09 95.12"/></g><g id="_Radial_Repeat_-3"><line class="cls-1" x1="22.43" y1="40" x2="53.61" y2="58"/><polyline class="cls-1" points="38.09 32.88 40.62 50.5 24.09 57.12"/></g><g id="_Radial_Repeat_-4"><line class="cls-1" x1="64" y1="16" x2="64" y2="52"/><polyline class="cls-1" points="78 26 64 37 50 26"/></g><g id="_Radial_Repeat_-5"><line class="cls-1" x1="105.57" y1="40" x2="74.39" y2="58"/><polyline class="cls-1" points="103.91 57.12 87.38 50.5 89.91 32.88"/></g><g id="_Radial_Repeat_-6"><line class="cls-1" x1="105.57" y1="88" x2="74.39" y2="70"/><polyline class="cls-1" points="89.91 95.12 87.38 77.5 103.91 70.88"/></g><polygon class="cls-1" points="64 52.45 54 58.23 54 69.77 64 75.55 74 69.77 74 58.23 64 52.45"/></svg>